<?xml version="1.0" encoding="UTF-8" standalone="no"?>
<!-- Created with Inkscape (http://www.inkscape.org/) -->

<svg
   xmlns:dc="http://purl.org/dc/elements/1.1/"
   xmlns:cc="http://creativecommons.org/ns#"
   xmlns:rdf="http://www.w3.org/1999/02/22-rdf-syntax-ns#"
   xmlns:svg="http://www.w3.org/2000/svg"
   xmlns="http://www.w3.org/2000/svg"
   xmlns:sodipodi="http://sodipodi.sourceforge.net/DTD/sodipodi-0.dtd"
   xmlns:inkscape="http://www.inkscape.org/namespaces/inkscape"
   width="128"
   height="53"
   id="svg1341"
   sodipodi:version="0.32"
   inkscape:version="0.91 r13725"
   sodipodi:docname="licence.svg"
   inkscape:output_extension="org.inkscape.output.svg.inkscape"
   version="1.0">
  <sodipodi:namedview
     id="base"
     pagecolor="#ffffff"
     bordercolor="#666666"
     borderopacity="1.0"
     inkscape:pageopacity="0.0"
     inkscape:pageshadow="2"
     inkscape:zoom="5.6568542"
     inkscape:cx="52.086819"
     inkscape:cy="4.6506652"
     inkscape:document-units="px"
     inkscape:current-layer="layer1"
     inkscape:window-width="1536"
     inkscape:window-height="897"
     inkscape:window-x="-8"
     inkscape:window-y="-8"
     showguides="true"
     inkscape:guide-bbox="true"
     width="18in"
     height="12in"
     units="in"
     showborder="true"
     showgrid="false"
     fit-margin-top="0"
     fit-margin-left="0"
     fit-margin-right="0"
     fit-margin-bottom="0"
     inkscape:window-maximized="1">
    <sodipodi:guide
       orientation="horizontal"
       position="-628.31242,1158.6405"
       id="guide2344" />
    <sodipodi:guide
       orientation="horizontal"
       position="-628.31242,1307.1196"
       id="guide2346" />
    <sodipodi:guide
       orientation="vertical"
       position="-1448.4354,-726.74556"
       id="guide3321" />
    <sodipodi:guide
       orientation="vertical"
       position="-746.89643,-726.74556"
       id="guide3323" />
    <sodipodi:guide
       orientation="horizontal"
       position="-628.31242,239.06343"
       id="guide5223" />
    <sodipodi:guide
       orientation="horizontal"
       position="-628.31242,103.26875"
       id="guide5235" />
  </sodipodi:namedview>
  <defs
     id="defs1343" />
  <metadata
     id="metadata1346">
    <rdf:RDF>
      <cc:Work
         rdf:about="">
        <dc:format>image/svg+xml</dc:format>
        <dc:type
           rdf:resource="http://purl.org/dc/dcmitype/StillImage" />
        <dc:title />
      </cc:Work>
    </rdf:RDF>
  </metadata>
  <g
     inkscape:label="Layer 1"
     id="layer1"
     inkscape:groupmode="layer"
     transform="translate(-628.31242,-400.25444)">
    <path
       inkscape:connector-curvature="0"
       style="fill:#bd0000;fill-opacity:1;fill-rule:evenodd;stroke:none;stroke-width:1pt;stroke-linecap:butt;stroke-linejoin:miter"
       id="path3550"
       d="m 701.98469,432.3471 c 0,0 -0.003,0 -0.003,0 -0.2376,0 -0.44739,0.0784 -0.64457,0.23764 -0.14661,0.11625 -0.24775,0.27301 -0.32863,0.44743 0,0 0.0101,0 0.0101,0 0.0809,-0.17442 0.18202,-0.33118 0.32608,-0.44743 0.19717,-0.15926 0.40696,-0.23509 0.63955,-0.23764 z" />
    <path
       inkscape:connector-curvature="0"
       style="fill:#bd0000;fill-opacity:1;fill-rule:evenodd;stroke:none;stroke-width:1pt;stroke-linecap:butt;stroke-linejoin:miter"
       id="path3554"
       d="m 701.99224,432.3471 c -0.003,0 -0.005,0 -0.008,0 0.24519,0.002 0.40697,0.086 0.51566,0.26546 0.048,0.0758 0.0733,0.18957 0.0733,0.33363 0,0.0254 -0.005,0.0582 -0.008,0.086 0,0 0.0101,0 0.0101,0 0,-0.0279 0.005,-0.0607 0.005,-0.086 0,-0.14406 -0.0227,-0.25781 -0.0708,-0.33363 -0.1087,-0.18202 -0.27302,-0.26546 -0.51821,-0.26546 z" />
    <g
       style="fill:#005858;fill-opacity:1"
       id="g3556"
       transform="matrix(0.14823759,0,0,0.14823759,742.40827,552.20149)">
      <g
         style="fill:#005858;fill-opacity:1;fill-rule:evenodd;stroke:none;stroke-width:1pt;stroke-linecap:butt;stroke-linejoin:miter"
         id="g3558"
         transform="matrix(1.705222,0,0,1.705222,-769.6823,-728.9956)">
        <path
           inkscape:connector-curvature="0"
           style="fill:#005858;fill-opacity:1"
           id="path3560"
           d="m 0,36 c 0,0 7.46,0 7.46,0 0,0 3.35,-14 3.35,-14 0,0 12.12,0 12.12,0 0,0 1.56,-6 1.56,-6 0,0 -12.17,0 -12.17,0 0,0 2.02,-9 2.02,-9 0,0 12.95,0 12.95,0 0,0 1.56,-7 1.56,-7 C 28.85,0 8.4,0 8.4,0 8.4,0 0,36 0,36 Z" />
      </g>
      <g
         style="fill:#005858;fill-opacity:1;fill-rule:evenodd;stroke:none;stroke-width:1pt;stroke-linecap:butt;stroke-linejoin:miter"
         id="g3562"
         transform="matrix(1.705222,0,0,1.705222,-725.4318,-711.9434)">
        <path
           inkscape:connector-curvature="0"
           style="fill:#005858;fill-opacity:1"
           id="path3564"
           d="m 7.51,26 c 0,0 2.24,-9.4 2.24,-9.4 1.18,-5.09 3.67,-9.6 8.38,-9.6 0.42,0 0.83,0.21 1.14,0.26 0,0 1.82,-7.21 1.82,-7.21 -0.42,0 -0.88,-0.05 -1.4,-0.05 -3.47,0 -6.38,2.44 -8.32,5.94 0,0 -0.2,0 -0.2,0 C 11.46,4.23 11.71,2.61 11.9,1 11.9,1 5.47,1 5.47,1 5.1,3.08 4.53,7.15 3.66,10.82 3.66,10.82 0,26 0,26 c 0,0 7.51,0 7.51,0 z" />
      </g>
      <g
         style="fill:#005858;fill-opacity:1;fill-rule:evenodd;stroke:none;stroke-width:1pt;stroke-linecap:butt;stroke-linejoin:miter"
         id="g3566"
         transform="matrix(1.705222,0,0,1.705222,-690.253,-711.9434)">
        <path
           inkscape:connector-curvature="0"
           style="fill:#005858;fill-opacity:1"
           id="path3568"
           d="M 20.06,19.25 C 17.99,20.26 15.63,20 12.88,20 10.71,20 9.03,19.62 8.11,18.88 7.63,18.07 7.43,16.81 7.47,16 17.6,16.27 23.99,13.93 24.31,7.53 24.55,2.7 21.02,0 15.89,0 6.73,0 0.73,8.08 0.34,15.86 0,22.65 3.52,26 10.78,26 c 2.79,0 6.49,-0.32 9.52,-1.23 0,0 -0.24,-5.52 -0.24,-5.52 z M 17.32,7.53 C 17.2,9.91 14.26,10.05 8.47,10 9.1,7.91 11.22,6 14.69,6 c 1.71,0 2.69,0.65 2.63,1.53 z" />
      </g>
      <g
         style="fill:#005858;fill-opacity:1;fill-rule:evenodd;stroke:none;stroke-width:1pt;stroke-linecap:butt;stroke-linejoin:miter"
         id="g3570"
         transform="matrix(1.705222,0,0,1.705222,-645.0305,-711.9434)">
        <path
           inkscape:connector-curvature="0"
           style="fill:#005858;fill-opacity:1"
           id="path3572"
           d="M 20.05,19.25 C 17.98,20.26 15.62,20 12.88,20 10.7,20 9.03,19.62 8.11,18.88 7.63,18.07 7.42,16.81 7.46,16 17.6,16.27 23.98,13.93 24.31,7.53 24.55,2.7 21.02,0 15.89,0 6.72,0 0.72,8.08 0.33,15.86 0,22.65 3.52,26 10.77,26 c 2.8,0 6.5,-0.32 9.53,-1.23 0,0 -0.25,-5.52 -0.25,-5.52 z M 17.32,7.53 C 17.2,9.91 14.26,10.05 8.46,10 9.1,7.91 11.21,6 14.68,6 c 1.71,0 2.7,0.65 2.64,1.53 z" />
      </g>
      <g
         style="fill:#005858;fill-opacity:1;fill-rule:evenodd;stroke:none;stroke-width:1pt;stroke-linecap:butt;stroke-linejoin:miter"
         id="g3574"
         transform="matrix(1.705222,0,0,1.705222,-583.796,-711.9434)">
        <path
           inkscape:connector-curvature="0"
           style="fill:#005858;fill-opacity:1"
           id="path3576"
           d="M 22.74,26 C 22.8,22.83 23.56,17.85 24.35,14.58 24.35,14.58 27.56,1 27.56,1 25.52,0.31 22.34,0 19.28,0 6.86,0 0.7,9.2 0.27,17.82 0,23.23 2.93,26 7.49,26 c 2.95,0 6.28,-1.43 8.87,-5.73 0,0 0.11,0 0.11,0 -0.2,2.07 -0.44,4.08 -0.57,5.73 0,0 6.84,0 6.84,0 z M 17.61,11.72 C 16.15,18.08 13.17,20 10.95,20 8.88,20 7.98,18.53 8.1,16.39 8.34,11.56 12.16,6 16.98,6 c 0.78,0 1.39,-0.14 1.96,-0.28 0,0 -1.33,6 -1.33,6 z" />
      </g>
      <g
         style="fill:#005858;fill-opacity:1;fill-rule:evenodd;stroke:none;stroke-width:1pt;stroke-linecap:butt;stroke-linejoin:miter"
         id="g3578"
         transform="matrix(1.705222,0,0,1.705222,-536.6807,-711.9434)">
        <path
           inkscape:connector-curvature="0"
           style="fill:#005858;fill-opacity:1"
           id="path3580"
           d="m 0,24.82 c 1.44,1.12 4.46,1.13 7.61,1.18 6.73,0.05 11.81,-2.89 12.11,-8.29 0.17,-3.6 -2.62,-5.73 -5.35,-7.16 C 12.4,9.6 11.41,8.69 11.46,7.63 11.53,6.2 12.87,6 14.84,6 c 2.22,0 4,0.27 5.02,0.47 0,0 2.02,-5.42 2.02,-5.42 C 20.73,0.36 18.43,0 15.48,0 8.95,0 4.17,3.45 3.9,8.69 c -0.16,3.24 2.17,5.42 4.99,6.9 2.28,1.17 3.06,2.07 3,3.34 C 11.82,20.21 10.68,20 8.61,20 6.18,20 3.49,19.68 2.07,19.46 2.07,19.46 0,24.82 0,24.82 Z" />
      </g>
      <g
         style="fill:#005858;fill-opacity:1;fill-rule:evenodd;stroke:none;stroke-width:1pt;stroke-linecap:butt;stroke-linejoin:miter"
         id="g3582"
         transform="matrix(1.705222,0,0,1.705222,-481.3463,-730.7008)">
        <path
           inkscape:connector-curvature="0"
           style="fill:#005858;fill-opacity:1"
           id="path3584"
           d="m 7.45,37 c 0,0 6.05,-25 6.05,-25 0,0 -7.41,0 -7.41,0 0,0 -6.09,25 -6.09,25 0,0 7.45,0 7.45,0 z M 10.92,9 C 13.46,9 15.72,6.9 15.86,3.3 15.98,0.86 14.4,0 12.07,0 9.64,0 7.42,1.58 7.29,3.94 7.17,6.32 8.75,9 10.92,9 Z" />
      </g>
      <g
         style="fill:#005858;fill-opacity:1;fill-rule:evenodd;stroke:none;stroke-width:1pt;stroke-linecap:butt;stroke-linejoin:miter"
         id="g3586"
         transform="matrix(1.705222,0,0,1.705222,-456.9787,-710.7668)">
        <path
           inkscape:connector-curvature="0"
           style="fill:#005858;fill-opacity:1"
           id="path3588"
           d="m 7.46,25.31 c 0,0 2.64,-11.26 2.64,-11.26 1.37,-5.73 4.32,-7.74 6.75,-7.74 1.92,0 2.48,0.82 2.39,2.01 -0.05,0.96 -0.2,1.97 -0.4,2.87 0,0 -3.36,14.12 -3.36,14.12 0,0 7.46,0 7.46,0 0,0 3.54,-14.81 3.54,-14.81 C 26.75,9.22 27.05,7.31 27.11,6.15 27.33,1.64 25.08,0 20.94,0 c -3.32,0 -6.55,1.54 -9.1,4.88 0,0 -0.1,0 -0.1,0 0,0 0.68,-4.57 0.68,-4.57 0,0 -6.58,0 -6.58,0 C 5.41,2.45 4.86,5.04 4.08,8.06 4.08,8.06 0,25.31 0,25.31 c 0,0 7.46,0 7.46,0 z" />
      </g>
      <g
         style="fill:#005858;fill-opacity:1;fill-rule:evenodd;stroke:none;stroke-width:1pt;stroke-linecap:butt;stroke-linejoin:miter"
         id="g3590"
         transform="matrix(1.705222,0,0,1.705222,-389.5201,-728.9956)">
        <path
           inkscape:connector-curvature="0"
           style="fill:#005858;fill-opacity:1"
           id="path3592"
           d="m 0,36 c 0,0 7.46,0 7.46,0 0,0 3.36,-14 3.36,-14 0,0 12.11,0 12.11,0 0,0 1.56,-6 1.56,-6 0,0 -12.17,0 -12.17,0 0,0 2.02,-9 2.02,-9 0,0 12.95,0 12.95,0 0,0 1.56,-7 1.56,-7 C 28.85,0 8.4,0 8.4,0 8.4,0 0,36 0,36 Z" />
      </g>
      <g
         style="fill:#005858;fill-opacity:1;fill-rule:evenodd;stroke:none;stroke-width:1pt;stroke-linecap:butt;stroke-linejoin:miter"
         id="g3594"
         transform="matrix(1.705222,0,0,1.705222,-345.2696,-711.9434)">
        <path
           inkscape:connector-curvature="0"
           style="fill:#005858;fill-opacity:1"
           id="path3596"
           d="m 7.51,26 c 0,0 2.24,-9.4 2.24,-9.4 1.18,-5.09 3.67,-9.6 8.38,-9.6 0.42,0 0.83,0.21 1.14,0.26 0,0 1.82,-7.21 1.82,-7.21 -0.42,0 -0.88,-0.05 -1.4,-0.05 -3.47,0 -6.38,2.44 -8.32,5.94 0,0 -0.2,0 -0.2,0 C 11.46,4.23 11.71,2.61 11.9,1 11.9,1 5.47,1 5.47,1 5.11,3.08 4.53,7.15 3.66,10.82 3.66,10.82 0,26 0,26 c 0,0 7.51,0 7.51,0 z" />
      </g>
      <g
         style="fill:#005858;fill-opacity:1;fill-rule:evenodd;stroke:none;stroke-width:1pt;stroke-linecap:butt;stroke-linejoin:miter"
         id="g3598"
         transform="matrix(1.705222,0,0,1.705222,-310.0908,-711.9434)">
        <path
           inkscape:connector-curvature="0"
           style="fill:#005858;fill-opacity:1"
           id="path3600"
           d="M 20.06,19.25 C 17.99,20.26 15.63,20 12.88,20 10.71,20 9.03,19.62 8.11,18.88 7.63,18.07 7.43,16.81 7.47,16 17.6,16.27 23.99,13.93 24.31,7.53 24.55,2.7 21.02,0 15.89,0 6.73,0 0.73,8.08 0.34,15.86 0,22.65 3.53,26 10.78,26 c 2.79,0 6.5,-0.32 9.52,-1.23 0,0 -0.24,-5.52 -0.24,-5.52 z M 17.32,7.53 C 17.2,9.91 14.26,10.05 8.47,10 9.1,7.91 11.22,6 14.69,6 c 1.71,0 2.69,0.65 2.63,1.53 z" />
      </g>
      <g
         style="fill:#005858;fill-opacity:1;fill-rule:evenodd;stroke:none;stroke-width:1pt;stroke-linecap:butt;stroke-linejoin:miter"
         id="g3602"
         transform="matrix(1.705222,0,0,1.705222,-264.8684,-711.9434)">
        <path
           inkscape:connector-curvature="0"
           style="fill:#005858;fill-opacity:1"
           id="path3604"
           d="M 20.05,19.25 C 17.98,20.26 15.62,20 12.88,20 10.7,20 9.03,19.62 8.11,18.88 7.63,18.07 7.42,16.81 7.46,16 17.6,16.27 23.98,13.93 24.31,7.53 24.55,2.7 21.02,0 15.89,0 6.72,0 0.72,8.08 0.33,15.86 0,22.65 3.52,26 10.77,26 c 2.8,0 6.5,-0.32 9.53,-1.23 0,0 -0.25,-5.52 -0.25,-5.52 z M 17.32,7.53 C 17.2,9.91 14.26,10.05 8.46,10 9.1,7.91 11.21,6 14.68,6 c 1.71,0 2.7,0.65 2.64,1.53 z" />
      </g>
      <g
         style="fill:#005858;fill-opacity:1;fill-rule:evenodd;stroke:none;stroke-width:1pt;stroke-linecap:butt;stroke-linejoin:miter"
         id="g3606"
         transform="matrix(1.705222,0,0,1.705222,-219.8846,-730.7008)">
        <path
           inkscape:connector-curvature="0"
           style="fill:#005858;fill-opacity:1"
           id="path3608"
           d="M 23.31,0 C 23.31,0 20.5,11.36 20.5,11.36 19.48,10.94 18.15,11 17.11,11 7.53,11 0.75,19.2 0.3,28.08 0,34.34 3.34,37 7.64,37 c 3.01,0 6.18,-1.33 8.58,-4.77 0,0 0.1,0 0.1,0 0,0 -0.57,4.77 -0.57,4.77 0,0 6.78,0 6.78,0 0.31,-3 0.96,-6.57 1.69,-9.83 0,0 6.49,-27.17 6.49,-27.17 0,0 -7.4,0 -7.4,0 z M 17.47,24.42 C 16.3,29.35 13.54,31 11.36,31 9.19,31 7.98,29.49 8.13,26.8 8.38,21.82 11.8,17 16.25,17 c 1.25,0 2.32,0.19 2.91,0.47 0,0 -1.69,6.95 -1.69,6.95 z" />
      </g>
      <g
         style="fill:#005858;fill-opacity:1;fill-rule:evenodd;stroke:none;stroke-width:1pt;stroke-linecap:butt;stroke-linejoin:miter"
         id="g3610"
         transform="matrix(1.705222,0,0,1.705222,-169.2225,-711.9434)">
        <path
           inkscape:connector-curvature="0"
           style="fill:#005858;fill-opacity:1"
           id="path3612"
           d="M 10.61,26 C 19.31,26 26.02,19.41 26.49,10.44 26.78,4.5 23.08,0 16.25,0 7.23,0 0.76,7.3 0.31,16.12 0,22.54 4.14,26 10.61,26 Z m 1.17,-6 C 9.24,20 7.84,18.38 7.99,15.96 8.19,11.93 10.68,6 14.97,6 c 2.96,0 3.87,2.27 3.75,4.5 -0.22,4.4 -2.9,9.5 -6.94,9.5 z" />
      </g>
      <g
         style="fill:#005858;fill-opacity:1;fill-rule:evenodd;stroke:none;stroke-width:1pt;stroke-linecap:butt;stroke-linejoin:miter"
         id="g3614"
         transform="matrix(1.705222,0,0,1.705222,-120.5213,-711.9434)">
        <path
           inkscape:connector-curvature="0"
           style="fill:#005858;fill-opacity:1"
           id="path3616"
           d="M 7.2,26 C 7.2,26 9.9,14.58 9.9,14.58 11.03,9.49 13.85,6 16.38,6 c 1.82,0 2.32,1.33 2.23,3.07 -0.05,0.9 -0.25,1.91 -0.46,2.91 0,0 -3.34,14.02 -3.34,14.02 0,0 7.2,0 7.2,0 0,0 2.7,-11.47 2.7,-11.47 C 25.95,9.28 28.61,6 31.09,6 c 1.71,0 2.42,1.22 2.34,2.96 -0.05,1.01 -0.26,2.12 -0.52,3.13 0,0 -3.24,13.91 -3.24,13.91 0,0 7.25,0 7.25,0 0,0 3.49,-14.81 3.49,-14.81 0.27,-1.33 0.58,-3.4 0.63,-4.46 C 41.26,2.33 39.11,0 35.23,0 31.91,0 28.68,1.5 26.23,4.66 26.14,2.38 24.51,0 20.47,0 17.2,0 14.08,1.48 11.58,4.83 c 0,0 -0.1,0 -0.1,0 0,0 0.67,-3.83 0.67,-3.83 0,0 -6.42,0 -6.42,0 C 5.31,3.14 4.8,5.73 4.02,8.75 4.02,8.75 0,26 0,26 c 0,0 7.2,0 7.2,0 z" />
      </g>
    </g>
    <path
       inkscape:connector-curvature="0"
       style="fill:#0065ff;fill-opacity:0;fill-rule:evenodd;stroke:#005858;stroke-width:1.26389003;stroke-linecap:butt;stroke-linejoin:miter;stroke-miterlimit:4;stroke-opacity:1"
       d="m 708.43703,436.27669 c 0.10264,0.26378 0.20522,0.52716 0.31211,0.78475 0.16462,0.34998 0.35486,0.68499 0.58363,0.99772 1.23565,1.67966 3.30501,2.59934 5.93234,2.82832 0,0 2.82617,0 2.82617,0 0.89358,-0.0697 1.82996,-0.19968 2.80052,-0.38952 1.67386,-0.32731 3.44824,-0.8301 5.29102,-1.50203 1.39598,-0.50899 2.83045,-1.11119 4.28625,-1.81111 3.17036,-1.51979 6.44545,-3.47988 9.65856,-5.84535 1.05821,-0.77839 2.07362,-1.57708 3.04848,-2.3892 0.89358,-0.74351 1.75083,-1.49861 2.56964,-2.26201 2.28525,-2.20236 4.01047,-4.4391 4.98744,-6.4031 1.01757,-2.04525 1.22068,-3.79392 0.38693,-4.89554 -0.51091,-0.67619 -1.36605,-1.03856 -2.46701,-1.12384 4.95968,-3.72147 7.84995,-8.23583 6.81314,-11.08208 -0.32924,-0.90834 -1.05394,-1.58603 -2.09291,-1.96079 -0.46175,-0.16607 -0.98123,-0.2713 -1.54776,-0.31919 0,0 -1.52637,0 -1.52637,0 -2.13135,0.15373 -5.2308,0.91692 -7.86028,2.20556"
       sodipodi:nodetypes="cccccssccccscccsccc"
       id="path3618" />
    <path
       inkscape:connector-curvature="0"
       id="path3552"
       style="fill:#005858;fill-opacity:1;fill-rule:evenodd;stroke:none;stroke-width:1pt;stroke-linecap:butt;stroke-linejoin:miter;stroke-opacity:1"
       d="m 639.35266,401.89251 c 0,0 -8.79193,38.35906 -8.79193,38.35906 0.002,0 23.12791,0 23.13296,0 10.17036,0 40.67354,0 40.67354,0 5e-5,0 21.15437,0 21.15437,0 -2.52017,-0.21994 -4.50988,-1.10464 -5.6954,-2.71735 -0.21989,-0.29831 -0.40161,-0.61964 -0.56083,-0.95583 -0.10113,-0.24771 -0.19621,-0.49765 -0.2923,-0.75041 -0.25279,-0.80387 -0.35358,-1.69582 -0.30806,-2.6463 0.1264,-2.64912 1.36943,-5.80023 3.5231,-9.10002 2.28763,-3.50676 5.60314,-7.18223 9.70825,-10.59295 0.92012,-0.76389 1.87152,-1.51825 2.86743,-2.25134 1.23104,-0.90566 2.47157,-1.7398 3.71268,-2.51986 4.57274,-2.8789 9.13415,-4.89334 13.17608,-5.91657 -3.86246,1.26009 -8.20169,3.3993 -12.48881,6.31154 -0.15421,0.10413 -0.30649,0.2108 -0.4582,0.31598 -2.37861,1.64811 -4.53355,3.39846 -6.41421,5.16612 -6.05154,5.69004 -9.2501,11.58609 -7.79661,15.04031 0.10364,0.2376 0.22718,0.46448 0.37124,0.67936 1.56218,2.29773 5.43378,2.6949 10.3402,1.46135 0.33368,-0.0834 0.66737,-0.17789 1.01111,-0.27648 1.56723,-0.45244 3.23116,-1.06357 4.945,-1.81682 0.41202,-0.18202 0.82847,-0.36905 1.24809,-0.56878 0.043,-0.0202 0.0834,-0.0404 0.12636,-0.0632 5.40947,-2.68777 9.56673,-5.78046 10.46659,-7.63862 0.19719,-0.4042 0.24459,-0.74881 0.11059,-1.01902 -0.64206,-1.30182 -5.13484,-0.42233 -10.57718,1.93532 -0.43728,0.18962 -0.87966,0.38469 -1.32709,0.59245 0.364,-0.33794 0.74289,-0.6772 1.1296,-1.0111 0.6168,-0.53134 1.25538,-1.05091 1.93536,-1.56407 1.06418,-0.80584 2.14005,-1.53437 3.19922,-2.1802 4.9595,-3.74164 7.46675,-7.28101 6.94349,-8.59447 -0.0986,-0.24748 -0.30837,-0.41768 -0.63195,-0.52137 -1.03387,-0.32885 -2.92085,0.0637 -5.21353,1.00324 -1.89081,0.77554 -4.06249,1.9257 -6.26418,3.35721 0,0 -0.30016,0.19749 -0.30016,0.19749 0,0 -0.0553,0.0316 -0.0553,0.0316 0,0 -1.05847,0.70304 -1.05847,0.70304 0,0 0.60823,-1.11378 0.60823,-1.11378 0.90241,-1.65194 2.37233,-3.37549 4.20242,-4.97659 1.34224,-1.17063 2.87569,-2.27361 4.52631,-3.23872 0.62435,-0.36553 1.24778,-0.70501 1.87213,-1.01111 0.63955,-0.31246 1.27937,-0.59013 1.90373,-0.83734 1.81396,-0.71737 3.80665,-1.62329 5.31673,-1.74183 -0.13752,0 -4.50307,0.47006 -4.50307,0.47006 0,0 -14.29777,0 -14.29777,0 0,0 -63.0444,0 -63.0444,0 0,0 -28.12535,0 -28.12535,0 z m 68.48291,0.0553 c -0.24771,3.78079 0.48535,9.3185 2.14862,15.46683 0.29576,1.09401 0.61771,2.2074 0.97161,3.33352 0.21994,0.6954 0.44681,1.3799 0.67935,2.05381 -0.1365,0.2007 -0.27393,0.40015 -0.40287,0.60036 -2.07529,3.18042 -3.28833,6.18611 -3.59419,8.79982 -0.87716,-2.93728 -1.53749,-6.15456 -1.91164,-9.56607 -0.10615,-0.97746 -0.18922,-1.94402 -0.24485,-2.89902 -0.40951,-6.93699 0.49607,-13.22537 2.35397,-17.78925 z m -41.41606,4.92123 c 0.0473,-9.9e-4 0.094,0 0.14217,0 0,0 9.3449,0 9.3449,0 0.79878,0 1.4165,0.14973 1.85633,0.45029 0.43727,0.30232 0.60128,0.69338 0.49764,1.1691 0,0 -1.11379,5.03186 -1.11379,5.03186 0,0 -3.29403,0 -3.29403,0 0,0 1.0822,-4.89756 1.0822,-4.89756 0,0 -8.24685,0 -8.24685,0 0,0 -2.97806,13.46039 -2.97806,13.46039 0,0 -1.07433,4.87391 -1.07433,4.87391 0,0 8.23899,0 8.23899,0 0,0 0.008,-0.0316 0.008,-0.0316 0,0 1.65096,-7.457 1.65096,-7.457 0,0 -3.87066,0 -3.87066,0 0,0 0.37128,-1.68252 0.37128,-1.68252 0,-4e-5 7.16467,0 7.16467,0 0,-4e-5 -2.05381,9.30537 -2.05381,9.30537 -0.0279,0.13246 -0.0765,0.25245 -0.14222,0.37129 -0.16937,0.30838 -0.46478,0.57251 -0.8768,0.78994 -0.57128,0.30078 -1.25503,0.45024 -2.05385,0.45024 0,0 -9.33695,0 -9.33695,0 -0.79878,0 -1.4165,-0.14946 -1.85637,-0.45024 -0.43728,-0.30082 -0.6038,-0.68498 -0.49764,-1.16123 0,0 4.11556,-18.60287 4.11556,-18.60287 0.10615,-0.47572 0.43728,-0.86678 1.01107,-1.1691 0.0202,-0.0109 0.043,-0.0134 0.0632,-0.0237 0.52374,-0.26233 1.13838,-0.40982 1.84845,-0.4266 z m 14.64533,0 c -4e-5,0 11.76205,0 11.76205,0 0.78867,0 1.40858,0.14973 1.84846,0.45029 0.44233,0.30232 0.6117,0.69338 0.50555,1.1691 0,0 -2.19602,9.92154 -2.19602,9.92154 -0.10364,0.4727 -0.44268,0.85835 -1.01902,1.1612 -0.57632,0.30385 -1.25472,0.45814 -2.04594,0.45814 0,0 -8.54705,0 -8.54705,0 0,0 -1.65093,7.44905 -1.65093,7.44905 0,0 -0.26857,1.22441 -0.26857,1.22441 0,0 -3.22295,0 -3.22295,0 0,0 0.2449,-1.10592 0.2449,-1.10592 0,0 4.58953,-20.72781 4.58953,-20.72781 z m 16.24886,0 c 0,0 3.2229,0 3.2229,0 0,0 -3.64946,16.48589 -3.64946,16.48589 0,0 -0.79785,3.6021 -0.79785,3.6021 0,0 7.70975,0 7.70975,0 0.0809,0.59123 0.17534,1.17196 0.27648,1.74574 0,0 -11.59619,0 -11.59619,0 0,0 0.91629,-4.13924 0.91629,-4.13924 0,0 3.91808,-17.69449 3.91808,-17.69449 z m -13.41302,1.75369 c 0,0 -2.14075,9.65294 -2.14075,9.65294 0,0 8.03364,0 8.03364,0 0,0 2.1328,-9.65294 2.1328,-9.65294 0,0 -8.02569,0 -8.02569,0 z m -17.13058,22.78263 c 0.0316,-0.001 0.0631,0 0.0948,0 0.3741,0 0.70084,0.0657 0.9637,0.18957 0.28061,0.13146 0.48126,0.3267 0.59246,0.58455 0.10869,0.25025 0.13712,0.53429 0.079,0.84521 0,0 -0.0236,0.11849 -0.0236,0.11849 0,0 -0.9242,0 -0.9242,0 -4e-5,0 0.008,-0.11058 0.008,-0.11058 0.0239,-0.21725 -0.003,-0.38807 -0.0869,-0.50555 -0.0109,-0.0147 -0.0268,-0.0342 -0.0395,-0.0474 -0.0209,-0.0213 -0.0521,-0.0456 -0.079,-0.0632 -0.12934,-0.0815 -0.33161,-0.1264 -0.59245,-0.1264 -0.34634,0 -0.60511,0.0603 -0.78203,0.18167 -0.17192,0.1188 -0.28061,0.25153 -0.31599,0.41079 -0.0354,0.16176 0.0227,0.24678 0.0632,0.29225 0.001,0.001 0.006,0.006 0.008,0.008 0.0512,0.0436 0.22908,0.14599 0.78204,0.27648 0.5005,0.12134 0.83194,0.23035 1.01901,0.32388 0.28312,0.14406 0.48091,0.33082 0.58455,0.56082 0.10364,0.22754 0.1264,0.49387 0.0632,0.78204 -0.0632,0.28061 -0.20632,0.53938 -0.41865,0.78204 -0.20979,0.24265 -0.47678,0.43476 -0.79786,0.56877 -0.31847,0.13145 -0.66792,0.20535 -1.02687,0.20535 -0.45504,0 -0.8203,-0.0688 -1.10592,-0.20535 -0.29828,-0.14156 -0.51347,-0.36496 -0.63982,-0.65568 -0.12135,-0.28307 -0.14727,-0.60445 -0.079,-0.95579 0,0 0.0237,-0.11059 0.0237,-0.11059 0,0 0.90843,0 0.90843,0 0,0 -0.008,0.11059 -0.008,0.11059 -0.0227,0.20978 -3.1e-4,0.37915 0.0553,0.50555 0.0531,0.12135 0.15421,0.22182 0.31598,0.30016 0.17191,0.0834 0.38675,0.1264 0.63195,0.1264 0.21993,0 0.42089,-0.037 0.60036,-0.10267 0.17693,-0.0632 0.31756,-0.14661 0.41866,-0.2528 0.0986,-0.10615 0.15641,-0.21836 0.18167,-0.33967 0.0253,-0.10869 0.0193,-0.20065 -0.0236,-0.27647 -0.048,-0.0809 -0.14314,-0.15263 -0.2923,-0.21326 0,-5e-5 -0.77413,-0.22912 -0.77413,-0.22912 -0.43222,-0.10869 -0.72324,-0.21233 -0.89261,-0.31597 -0.23004,-0.13647 -0.39589,-0.31155 -0.48187,-0.52133 -0.0859,-0.20728 -0.0951,-0.43702 -0.0394,-0.68727 0.0581,-0.26796 0.18733,-0.52291 0.38706,-0.7504 0.20223,-0.23004 0.4632,-0.41048 0.77413,-0.52928 0.27489,-0.10307 0.56416,-0.16353 0.86889,-0.17376 z m 8.2943,0.0158 c 0.05,-0.004 0.097,0 0.15008,0 0,0 0.56873,0.0632 0.56873,0.0632 0,0 0.18958,0.0158 0.18958,0.0158 5e-5,0 -0.27643,0.70304 -0.27643,0.70304 0,0 -0.0553,0.11058 -0.0553,0.11058 0,0 -0.43447,-0.0395 -0.43447,-0.0395 -0.12828,0 -0.22252,0.0198 -0.28438,0.0632 -0.004,0.003 -0.012,0.0125 -0.0158,0.0158 -0.008,0.007 -0.0222,0.0199 -0.0316,0.0316 -0.038,0.0499 -0.0844,0.13901 -0.1185,0.30016 0,0 -0.0165,0.0682 -0.0316,0.1264 0.19968,0 0.67932,0 0.67932,0 0,0 -0.17377,0.78204 -0.17377,0.78204 0,0 -0.49672,0 -0.66354,0 -0.0506,0.22749 -0.67145,3.0096 -0.67145,3.0096 0,0 -0.91634,0 -0.91634,0 0,0 0.59562,-2.67342 0.67145,-3.0096 -0.15421,0 -0.52924,0 -0.52924,0 0,0 0.17376,-0.78204 0.17376,-0.78204 0,0 0.37727,0 0.52138,0 0.0252,-0.1087 0.0632,-0.24489 0.0632,-0.24489 0.0556,-0.2528 0.11375,-0.43446 0.18958,-0.56087 0.10369,-0.17442 0.24994,-0.32037 0.43447,-0.42655 0.15201,-0.0883 0.34423,-0.14112 0.56087,-0.158 z m 2.18811,0.0395 c 0,0 -0.23953,1.0778 -0.30015,1.35081 0.17692,0 0.59241,0 0.59241,0 0,0 -0.17376,0.78203 -0.17376,0.78203 0,0 -0.43575,0 -0.59246,0 -0.048,0.21734 -0.42656,1.90373 -0.42656,1.90373 0,0 -0.0316,0.20253 -0.0316,0.26066 5e-5,0.002 -1.7e-4,0.006 0,0.008 1.3e-4,10e-4 -1.7e-4,0.007 0,0.008 2.2e-4,3.9e-4 0.008,-3.1e-4 0.008,0 0,0 0.0948,0.008 0.0948,0.008 0,0 0.43447,-0.0316 0.43447,-0.0316 0,0 -0.0474,0.70303 -0.0474,0.70303 0,0 0.008,0.1264 0.008,0.1264 0,0 -0.62405,0.0711 -0.62405,0.0711 -0.2477,0 -0.42941,-0.0404 -0.56086,-0.12639 -0.13901,-0.091 -0.2199,-0.21168 -0.25276,-0.36334 -0.005,-0.0279 -0.0158,-0.0683 -0.0158,-0.1264 0,-0.11375 0.0215,-0.30618 0.0948,-0.63986 0,0 0.33206,-1.48758 0.40284,-1.80101 -0.1188,0 -0.43442,0 -0.43442,0 0,0 0.17376,-0.78203 0.17376,-0.78203 0,0 0.30807,0 0.43447,0 0.0404,-0.18202 0.18167,-0.80576 0.18167,-0.80576 0,0 0.73467,-0.38706 0.73467,-0.38706 0,0 0.30016,-0.15799 0.30016,-0.15799 z m -29.10897,0.0316 c 0,0 3.55469,0 3.55469,0 0,0 -0.19747,0.88475 -0.19747,0.88475 0,0 -2.37138,0 -2.59888,0 -0.0404,0.17948 -0.20253,0.9062 -0.26067,1.1691 0.32861,0 2.2513,0 2.2513,0 0,0 -0.19749,0.88471 -0.19749,0.88471 0,0 -2.02379,0 -2.2513,0 -0.048,0.21993 -0.48186,2.17229 -0.48186,2.17229 0,0 -0.95582,0 -0.95582,0 0,0 1.1375,-5.11085 1.1375,-5.11085 z m 4.76329,1.24813 c 0.0357,-0.005 0.0746,0 0.11059,0 0.22749,0 0.43763,0.0692 0.63985,0.21326 0,0 0.12638,0.0869 0.12638,0.0869 0,0 -0.48975,0.8057 -0.48975,0.8057 0,0 -0.13429,-0.0948 -0.13429,-0.0948 -0.0986,-0.0632 -0.20475,-0.0948 -0.31597,-0.0948 -0.0961,0 -0.18547,0.0342 -0.27648,0.0948 -0.0961,0.0632 -0.17631,0.14696 -0.23697,0.26071 -0.10617,0.19463 -0.1839,0.41262 -0.23699,0.64772 0,0 -0.42657,1.94322 -0.42657,1.94322 0,0 -0.91632,0 -0.91632,0 0,0 0.84524,-3.79163 0.84524,-3.79163 0,0 0.85312,0 0.85312,0 0,0 -0.0294,0.11497 -0.0395,0.15795 0.0404,-0.0303 0.0831,-0.072 0.11851,-0.0948 0.12242,-0.0731 0.25175,-0.11867 0.37916,-0.13427 z m 2.71736,0 c 0.0552,-0.004 0.10948,0 0.16589,0 0.51566,0 0.90588,0.1807 1.16119,0.53715 0.15925,0.22999 0.24489,0.51438 0.24489,0.85312 0,0.18703 -0.0231,0.38833 -0.0711,0.60823 0,0 -0.0711,0.27647 -0.0711,0.27647 0,0 -2.31734,0 -2.57518,0 -0.005,0.0531 -0.008,0.10997 -0.008,0.15799 0,0.19718 0.0404,0.35231 0.12638,0.46606 0.0408,0.0556 0.0882,0.10571 0.14219,0.14217 0.10182,0.0664 0.23324,0.10272 0.38708,0.10272 0.18705,0 0.35136,-0.0515 0.50555,-0.15008 0.14661,-0.0935 0.2869,-0.243 0.41077,-0.45028 0,0 0.97951,0 0.97951,0 0,0 -0.0869,0.18957 -0.0869,0.18957 -0.18706,0.3792 -0.44806,0.67492 -0.77414,0.88475 -0.32607,0.20979 -0.71567,0.32384 -1.1454,0.32384 -0.55863,0 -0.97445,-0.1807 -1.23228,-0.53714 -0.25531,-0.34884 -0.31029,-0.83102 -0.1738,-1.43767 0.13652,-0.61679 0.40887,-1.1097 0.80573,-1.45348 0.35571,-0.30842 0.75934,-0.4795 1.2086,-0.51342 z m 4.11556,0 c 0.0551,-0.004 0.10948,0 0.16585,0 0.5157,0 0.90593,0.1807 1.16123,0.53715 0.15926,0.22999 0.24485,0.51438 0.24485,0.85312 0,0.18452 -0.0231,0.38293 -0.0711,0.60032 0,0 -0.0711,0.28439 -0.0711,0.28439 0,0 -2.31734,0 -2.57517,0 -0.002,0.0354 -0.005,0.0673 -0.008,0.10267 -0.002,0.0133 10e-4,0.0334 0,0.0474 -8e-5,0.002 0,0.006 0,0.008 0,0.0379 0.005,0.0752 0.008,0.11058 0.0126,0.14411 0.0502,0.26449 0.11848,0.35547 0.013,0.0177 0.0252,0.0396 0.0395,0.0553 0.11578,0.12385 0.27964,0.18958 0.48976,0.18958 0.18706,0 0.35388,-0.0515 0.50554,-0.15008 0.14666,-0.0935 0.28694,-0.24301 0.41079,-0.45029 0,0 0.98739,0 0.98739,0 0,0 -0.0948,0.18958 -0.0948,0.18958 -0.18707,0.3792 -0.44805,0.67492 -0.77413,0.88475 -0.32608,0.20979 -0.71569,0.32385 -1.1454,0.32385 -0.55865,0 -0.97447,-0.18071 -1.2323,-0.53715 -0.16683,-0.2275 -0.24487,-0.51724 -0.24487,-0.86103 0,-0.0531 0.003,-0.11027 0.008,-0.1659 0.0101,-0.13141 0.0303,-0.26413 0.0632,-0.41074 0.1365,-0.61424 0.40097,-1.1097 0.79783,-1.45348 0.3557,-0.30843 0.76723,-0.4795 1.21651,-0.51342 z m 11.20909,0 c 0.0565,-0.005 0.10838,0 0.1659,0 0.5258,0 0.92991,0.17785 1.19278,0.52923 0.26039,0.35135 0.32357,0.82532 0.18961,1.42186 -0.10363,0.46514 -0.2534,0.84081 -0.45819,1.11382 -0.20473,0.27301 -0.4657,0.49607 -0.77412,0.64773 -0.30583,0.15166 -0.62972,0.22907 -0.9558,0.22907 -0.53591,0 -0.93497,-0.18324 -1.19282,-0.53714 -0.16682,-0.22499 -0.25275,-0.51469 -0.25275,-0.86102 0,-0.18704 0.0205,-0.38579 0.0711,-0.60824 0.15166,-0.67747 0.46131,-1.19343 0.9163,-1.52457 0.33399,-0.24111 0.70286,-0.38038 1.09801,-0.41074 z m 13.87912,0 c 0.0666,-0.004 0.12833,0 0.19748,0 0.31849,0 0.56874,0.0322 0.75832,0.11059 0.20223,0.0809 0.34567,0.19524 0.42655,0.33174 0.0784,0.12891 0.1185,0.28724 0.1185,0.48187 0,0 -0.0948,0.57664 -0.0948,0.57664 0,0 -0.17381,0.78204 -0.17381,0.78204 -0.14915,0.66732 -0.18197,0.91757 -0.18957,1.01111 -0.008,0.1264 0.004,0.2496 0.0395,0.36338 0,0 0.0632,0.20535 0.0632,0.20535 0,0 -0.93212,0 -0.93212,0 0,0 -0.0395,-0.11849 -0.0395,-0.11849 -0.0151,-0.0556 -0.0108,-0.12635 -0.0158,-0.18958 -0.17697,0.1087 -0.3542,0.20509 -0.51346,0.26066 -0.23509,0.0809 -0.47902,0.1264 -0.72676,0.1264 -0.42968,0 -0.7479,-0.11185 -0.94003,-0.33175 -0.14656,-0.16176 -0.21326,-0.35955 -0.21326,-0.58455 0,-0.0859 0.0114,-0.17503 0.0316,-0.26856 0.043,-0.19213 0.12104,-0.37002 0.24489,-0.52929 0.12135,-0.15671 0.2648,-0.28561 0.42656,-0.37915 0.15672,-0.0935 0.33144,-0.15987 0.51346,-0.20539 0,0 0.56087,-0.0948 0.56087,-0.0948 0.43223,-0.0506 0.75484,-0.11344 0.98738,-0.18171 0.005,-0.0253 0.0158,-0.0553 0.0158,-0.0553 0.0367,-0.16265 0.0321,-0.28492 -0.008,-0.34757 -0.003,-0.004 -0.0124,-0.0123 -0.0158,-0.0158 -0.009,-0.009 -0.0217,-0.0234 -0.0316,-0.0316 -0.0951,-0.0752 -0.25719,-0.11058 -0.47397,-0.11058 -0.24519,0 -0.42655,0.0401 -0.55291,0.11849 -0.12389,0.0783 -0.23857,0.22178 -0.3397,0.42656 0,0 -0.9558,0 -0.9558,0 0,0 0.0869,-0.18958 0.0869,-0.18958 0.11375,-0.2629 0.24933,-0.48095 0.4187,-0.64777 0.16937,-0.16682 0.39813,-0.29607 0.66354,-0.38706 0.20337,-0.0671 0.42551,-0.11168 0.66354,-0.12636 z m 4.00494,0 c 0.0357,-0.005 0.0746,0 0.11058,0 0.23004,0 0.44554,0.0692 0.64777,0.21326 0,0 0.11849,0.0869 0.11849,0.0869 0,0 -0.48978,0.8057 -0.48978,0.8057 0,0 -0.13426,-0.0948 -0.13426,-0.0948 -0.0986,-0.0632 -0.19942,-0.0948 -0.30807,-0.0948 -0.0961,0 -0.1909,0.0342 -0.28439,0.0948 -0.0961,0.0632 -0.1659,0.14696 -0.22908,0.26071 -0.10364,0.19463 -0.18391,0.41262 -0.23698,0.64772 0,0 -0.43447,1.94322 -0.43447,1.94322 0,0 -0.91634,0 -0.91634,0 0,0 0.84526,-3.79163 0.84526,-3.79163 0,0 0.85312,0 0.85312,0 0,0 -0.0215,0.11497 -0.0316,0.15795 0.0404,-0.0303 0.0806,-0.072 0.11849,-0.0948 0.12047,-0.0731 0.24393,-0.11867 0.37125,-0.13427 z m 2.70948,0 c 0.0551,-0.004 0.10948,0 0.16585,0 0.51571,0 0.90844,0.1807 1.16123,0.53715 0.16177,0.22999 0.24485,0.51438 0.24485,0.85312 0,0.18703 -0.031,0.38833 -0.079,0.60823 0,0 -0.0632,0.27647 -0.0632,0.27647 0,0 -2.31987,0 -2.57518,0 -0.005,0.0531 -0.0158,0.10997 -0.0158,0.15799 0,0.19718 0.043,0.35231 0.1264,0.46606 0.013,0.0177 0.0331,0.0396 0.0474,0.0553 0.008,0.009 0.0228,0.0233 0.0316,0.0316 0.113,0.10273 0.26682,0.15799 0.45815,0.15799 0.18707,0 0.35139,-0.0515 0.50556,-0.15008 0.14665,-0.0935 0.28438,-0.24299 0.41078,-0.45028 0,0 0.98743,0 0.98743,0 0,0 -0.0948,0.18957 -0.0948,0.18957 -0.18707,0.3792 -0.45059,0.67493 -0.77413,0.88476 -0.32862,0.20979 -0.71314,0.32385 -1.14541,0.32385 -0.55863,0 -0.96656,-0.18071 -1.22437,-0.53715 -0.2553,-0.34884 -0.31566,-0.83102 -0.18171,-1.43767 0.1365,-0.6168 0.40099,-1.1097 0.79785,-1.45348 0.35794,-0.30843 0.76767,-0.47951 1.2165,-0.51343 z m -13.83172,0.0711 c 0,0 0.94003,0 0.94003,0 0,0 0.11594,2.25001 0.11849,2.28288 0.0379,-0.0806 0.0674,-0.14837 0.0711,-0.15799 0,0 1.03483,-2.12489 1.03483,-2.12489 0,0 0.86103,0 0.86103,0 0,0 0.079,2.22282 0.079,2.23547 0.0253,-0.0455 1.17696,-2.23547 1.17696,-2.23547 0,0 0.93211,0 0.93211,0 0,0 -2.0538,3.79163 -2.0538,3.79163 0,0 -0.84521,0 -0.84521,0 0,0 -0.0819,-2.056 -0.0869,-2.17229 -0.34884,0.71538 -1.05851,2.17229 -1.05851,2.17229 0,0 -0.86894,0 -0.86894,0 0,0 -0.30016,-3.79163 -0.30016,-3.79163 z m -22.07067,0.71881 c -0.21774,0.009 -0.41551,0.0877 -0.60035,0.23699 -0.1466,0.11629 -0.24551,0.27585 -0.32387,0.45024 0,4e-5 1.55616,0 1.55616,0 0.003,-0.0278 0.008,-0.0616 0.008,-0.0869 0,-0.14411 -0.0256,-0.25596 -0.0711,-0.3318 -0.11121,-0.18198 -0.27615,-0.26857 -0.52136,-0.26857 -0.0147,0 -0.0328,-0.001 -0.0474,0 z m 4.11553,0 c -0.21774,0.009 -0.41549,0.0877 -0.60034,0.23699 -0.14661,0.11629 -0.24298,0.27585 -0.32387,0.45024 0,4e-5 1.55616,0 1.55616,0 0.002,-0.0278 0.008,-0.0616 0.008,-0.0869 0,-0.14411 -0.023,-0.25596 -0.0711,-0.3318 -0.0221,-0.037 -0.052,-0.0737 -0.079,-0.10268 -0.10557,-0.10903 -0.25082,-0.16589 -0.44237,-0.16589 -0.0147,0 -0.0328,-0.001 -0.0474,0 z m 31.83426,0 c -0.22393,0.007 -0.43306,0.0827 -0.62409,0.23699 -0.14406,0.11629 -0.24295,0.27585 -0.32384,0.45024 0,4e-5 1.54826,0 1.54826,0 0.002,-0.0278 0.008,-0.0616 0.008,-0.0869 0,-0.14411 -0.0231,-0.25596 -0.0711,-0.3318 -0.10869,-0.17947 -0.27617,-0.26603 -0.52137,-0.26857 -0.007,9e-5 -0.009,-2.2e-4 -0.0158,0 z m -20.69621,0.0158 c -0.20895,0.0248 -0.40328,0.12016 -0.58455,0.28435 -0.21739,0.19718 -0.37507,0.50683 -0.46606,0.91634 -0.0379,0.17187 -0.0553,0.31883 -0.0553,0.45024 0,0.17947 0.0344,0.32041 0.10272,0.42656 0.0181,0.0273 0.0423,0.0561 0.0632,0.079 0.11238,0.11933 0.26927,0.18171 0.46605,0.18171 0.25531,0 0.4803,-0.0951 0.69514,-0.29229 0.21738,-0.19968 0.37252,-0.5125 0.46605,-0.93211 0.0859,-0.38421 0.0739,-0.67111 -0.0474,-0.85312 -0.11625,-0.17693 -0.28627,-0.26067 -0.52133,-0.26067 -0.0399,0 -0.0798,-0.005 -0.11848,0 z m 14.27405,1.38235 c -0.21484,0.0582 -0.45565,0.10712 -0.77413,0.15013 -0.23759,0.0353 -0.40696,0.0727 -0.50555,0.11058 -0.0859,0.0353 -0.15513,0.0844 -0.2133,0.15008 -0.0556,0.0632 -0.0929,0.12952 -0.11059,0.20539 -0.005,0.0303 -0.008,0.0616 -0.008,0.0869 0,0.002 -4e-5,0.006 0,0.008 2.6e-4,0.006 -10e-4,0.0179 0,0.0237 0.001,0.0114 0.005,0.0288 0.008,0.0394 0.001,0.004 0.007,0.0124 0.008,0.0158 0.002,0.007 0.005,0.0172 0.008,0.0237 0.004,0.006 0.0116,0.0175 0.0158,0.0237 0.007,0.009 0.0156,0.0231 0.0237,0.0316 0.0632,0.0708 0.18927,0.10267 0.37125,0.10267 0.19973,0 0.39181,-0.0379 0.56877,-0.12635 0.17443,-0.086 0.31502,-0.21427 0.41866,-0.36338 0.0758,-0.10615 0.1365,-0.26954 0.18958,-0.48188 z m -48.25019,-6.3336 21.20012,-21.88883 3.46205,0 -5.11881,21.88883 -2.84757,0 1.45343,-6.30088 -8.88744,0 -6.03953,6.30088 -3.22225,0 m 11.42153,-8.55546 7.26882,0 1.3411,-5.4946 c 0.54125,-2.1799 1.06225,-3.9965 1.563,-5.4498 -1.00071,1.25421 -2.32467,2.74234 -3.97188,4.46435 l -6.20104,6.48003" />
    <g
       id="g2803"
       transform="matrix(0.3530567,0,0,0.3530567,91.758709,726.11865)" />
  </g>
</svg>
